# Blender v2.82 (sub 7) OBJ File: ''
# www.blender.org
mtllib rocks__.mtl
o Plane
v -0.728683 -0.759761 -0.300582
v -1.000000 -1.000000 -0.000000
v -1.000000 -0.750000 -0.000000
v -0.250000 0.750000 -0.242319
v -0.250000 1.000000 0.000000
v 0.000000 1.000000 0.000000
v -0.250000 -0.250000 -1.128694
v -0.250000 0.000000 -0.810644
v 0.000000 -0.250000 -0.808456
v 0.691619 -0.249815 -0.213559
v 0.750000 0.000000 -0.242319
v 1.000000 -0.250000 -0.000000
v 0.250000 0.750000 -0.242319
v 0.250000 1.000000 0.000000
v 0.500000 0.750000 -0.223831
v 0.250486 0.181869 -0.488523
v 0.250000 0.500000 -0.354796
v 0.500000 0.250000 -0.354796
v 0.750000 0.250000 -0.223831
v 0.750000 0.500000 -0.223831
v 1.000000 0.500000 0.000000
v -0.750000 0.750000 -0.512403
v -0.750000 1.000000 0.000000
v -0.500000 1.000000 0.000000
v -0.500000 0.250000 -1.447507
v -0.750000 0.250000 -0.334025
v -0.500000 0.500000 -0.846428
v -0.250000 0.250000 -0.810644
v -0.250000 0.500000 -0.715860
v 0.000000 0.250000 -0.611596
v -0.676910 -0.262726 -0.200068
v -0.670264 -0.025902 -0.218082
v -0.500000 -0.250000 -0.334025
v -0.728683 -0.759761 -0.300582
v -0.720257 -0.520142 -0.323514
v -0.500000 -0.500000 -0.556750
v -0.320289 -0.515181 -0.555605
v -0.250000 -0.500000 -0.794669
v -0.092271 -0.597517 -0.388458
v 0.250000 -0.250000 -1.433538
v 0.250000 0.000000 -0.624154
v 0.500000 -0.250000 -0.242319
v 0.250000 -0.750000 -0.794669
v 0.250000 -0.500000 -0.794669
v 0.500000 -0.500000 -1.128694
v 0.680267 -0.725913 -0.194790
v 0.750000 -0.500000 -0.290290
v 1.000000 -0.500000 -0.000000
v 0.500000 0.750000 -0.223831
v 0.500000 1.000000 0.000000
v 0.750000 1.000000 0.000000
v 0.460341 0.302104 -0.848127
v 0.500000 0.750000 -0.223831
v 0.750000 0.500000 -0.223831
v 0.750000 0.500000 -0.223831
v 0.741859 0.742389 -0.251357
v 1.000000 0.750000 0.000000
v -0.500000 0.750000 -0.512403
v -0.500000 1.000000 0.000000
v -0.250000 0.750000 -0.242319
v -0.500000 0.500000 -0.846428
v -0.500000 0.750000 -0.512403
v -0.250000 0.500000 -0.715860
v -0.250000 0.500000 -0.715860
v -0.250000 0.750000 -0.242319
v 0.000000 0.500000 -0.334025
v -0.500000 -0.250000 -0.334025
v -0.500000 0.000000 -0.810644
v -0.250000 -0.250000 -1.128694
v -0.500000 -0.500000 -0.556750
v -0.500000 -0.250000 -0.334025
v -0.250000 -0.500000 -0.794669
v -0.250000 -0.500000 -0.794669
v -0.250000 -0.250000 -1.128694
v 0.000000 -0.250000 -0.808456
v 0.500000 -0.250000 -0.242319
v 0.500000 0.000000 -0.242319
v 0.691619 -0.249815 -0.213559
v 0.500000 -0.500000 -1.128694
v 0.500000 -0.250000 -0.242319
v 0.750000 -0.500000 -0.290290
v 0.750000 -0.500000 -0.290290
v 0.691619 -0.249815 -0.213559
v 1.000000 -0.500000 -0.000000
v 0.000000 0.750000 -0.334025
v 0.000000 1.000000 0.000000
v 0.250000 0.750000 -0.242319
v 0.000000 0.500000 -0.334025
v 0.000000 0.750000 -0.334025
v 0.250000 0.500000 -0.354796
v 0.250000 0.500000 -0.354796
v 0.250000 0.750000 -0.242319
v 0.500000 0.750000 -0.223831
v 0.000000 0.250000 -0.611596
v 0.000000 0.500000 -0.334025
v 0.250486 0.181869 -0.488523
v 0.000000 0.000000 -0.715860
v 0.000000 0.250000 -0.611596
v 0.250000 0.000000 -0.624154
v 0.250000 0.000000 -0.624154
v 0.250486 0.181869 -0.488523
v 0.500000 0.000000 -0.242319
v 0.500000 0.250000 -0.354796
v 0.460341 0.302104 -0.848127
v 0.750000 0.500000 -0.223831
v 0.500000 0.000000 -0.242319
v 0.500000 0.250000 -0.354796
v 0.750000 0.250000 -0.223831
v 0.750000 0.000000 -0.242319
v 0.750000 0.250000 -0.223831
v 1.000000 0.000000 0.000000
v -1.000000 0.500000 0.000000
v -1.000000 0.750000 0.000000
v -0.750000 0.750000 -0.512403
v -0.750000 0.500000 -0.512403
v -0.750000 0.750000 -0.512403
v -0.500000 0.750000 -0.512403
v -1.000000 0.250000 0.000000
v -1.000000 0.500000 0.000000
v -0.750000 0.250000 -0.334025
v -1.000000 0.000000 0.000000
v -1.000000 0.250000 0.000000
v -0.670264 -0.025902 -0.218082
v -0.670264 -0.025902 -0.218082
v -0.750000 0.250000 -0.334025
v -0.500000 0.000000 -0.810644
v -0.500000 0.250000 -1.447507
v -0.500000 0.500000 -0.846428
v -0.250000 0.250000 -0.810644
v -0.500000 0.000000 -0.810644
v -0.500000 0.250000 -1.447507
v -0.250000 0.250000 -0.810644
v -0.250000 0.000000 -0.810644
v -0.250000 0.250000 -0.810644
v 0.000000 0.000000 -0.715860
v -1.000000 -0.250000 -0.000000
v -1.000000 0.000000 0.000000
v -0.670264 -0.025902 -0.218082
v -1.000000 -0.500000 -0.000000
v -1.000000 -0.250000 -0.000000
v -0.676910 -0.262726 -0.200068
v -0.720257 -0.520142 -0.323514
v -0.676910 -0.262726 -0.200068
v -0.500000 -0.250000 -0.334025
v -1.000000 -0.750000 -0.000000
v -1.000000 -0.500000 -0.000000
v -0.728683 -0.759761 -0.300582
v -1.000000 0.750000 0.000000
v -0.750000 0.750000 -0.512403
v -0.750000 -1.000000 -0.000000
v -0.728683 -0.759761 -0.300582
v -0.500000 -1.000000 -0.000000
v -0.500000 -0.750000 -0.794669
v -0.500000 -0.500000 -0.556750
v -0.320289 -0.515181 -0.555605
v -0.500000 -1.000000 -0.000000
v -0.500000 -0.750000 -0.794669
v -0.320289 -0.515181 -0.555605
v -0.250000 -1.000000 -0.000000
v -0.320289 -0.515181 -0.555605
v -0.092271 -0.597517 -0.388458
v 0.000000 -0.250000 -0.808456
v 0.000000 0.000000 -0.715860
v 0.250000 0.000000 -0.624154
v 0.000000 -0.500000 -1.094769
v 0.000000 -0.250000 -0.808456
v 0.250000 -0.250000 -1.433538
v 0.250000 -0.500000 -0.794669
v 0.250000 -0.250000 -1.433538
v 0.500000 -0.250000 -0.242319
v -0.092271 -0.597517 -0.388458
v 0.000000 -0.500000 -1.094769
v 0.250000 -0.750000 -0.794669
v 0.000000 -1.000000 -0.000000
v -0.092271 -0.597517 -0.388458
v 0.250000 -1.000000 -0.000000
v 0.250000 -1.000000 -0.000000
v 0.250000 -0.750000 -0.794669
v 0.500000 -0.750000 -0.290290
v 0.680267 -0.725913 -0.194790
v 0.500000 -0.750000 -0.290290
v 0.750000 -0.500000 -0.290290
v 0.500000 -1.000000 -0.000000
v 0.500000 -0.750000 -0.290290
v 0.680267 -0.725913 -0.194790
v 0.750000 -1.000000 -0.000000
v 0.680267 -0.725913 -0.194790
v 1.000000 -1.000000 -0.000000
v -0.750000 -1.000000 -0.000000
v 0.000000 0.750000 -0.334025
v 0.000000 0.000000 -0.715860
v 1.000000 0.000000 0.000000
v 0.500000 1.000000 0.000000
v 0.460341 0.302104 -0.848127
v 1.000000 0.250000 0.000000
v -0.500000 0.750000 -0.512403
v 0.000000 0.500000 -0.334025
v -0.500000 0.000000 -0.810644
v -0.500000 -0.750000 -0.794669
v 0.000000 -0.500000 -1.094769
v 0.500000 -0.500000 -1.128694
v 0.500000 -0.750000 -0.290290
v 1.000000 -0.750000 -0.000000
v 0.741859 0.742389 -0.251357
v 0.741859 0.742389 -0.251357
v 1.000000 0.500000 0.000000
v -0.250000 1.000000 0.000000
v -0.250000 0.750000 -0.242319
v 0.000000 0.750000 -0.334025
v -0.250000 0.000000 -0.810644
v -0.250000 -0.250000 -1.128694
v 0.000000 -0.500000 -1.094769
v 0.750000 0.000000 -0.242319
v -0.750000 0.500000 -0.512403
v 1.000000 -0.250000 -0.000000
v 0.250000 1.000000 0.000000
v 0.250000 0.750000 -0.242319
v 0.460341 0.302104 -0.848127
v 0.250000 0.500000 -0.354796
v 0.250486 0.181869 -0.488523
v 0.500000 0.250000 -0.354796
v 0.750000 0.250000 -0.223831
v 0.750000 0.000000 -0.242319
v 1.000000 0.250000 0.000000
v -0.750000 0.500000 -0.512403
v -0.500000 0.500000 -0.846428
v -0.750000 0.500000 -0.512403
v -0.750000 0.250000 -0.334025
v -0.500000 0.250000 -1.447507
v -0.250000 0.500000 -0.715860
v -0.250000 0.000000 -0.810644
v 0.000000 0.250000 -0.611596
v -0.676910 -0.262726 -0.200068
v -0.720257 -0.520142 -0.323514
v -0.500000 -0.500000 -0.556750
v -0.720257 -0.520142 -0.323514
v -1.000000 1.000000 0.000000
v -0.750000 1.000000 0.000000
v -0.500000 -0.750000 -0.794669
v -0.250000 -0.500000 -0.794669
v -0.250000 -1.000000 -0.000000
v 0.000000 -1.000000 -0.000000
v 0.250000 -0.250000 -1.433538
v 0.250000 -0.500000 -0.794669
v 0.500000 -0.500000 -1.128694
v 0.250000 -0.500000 -0.794669
v 0.250000 -0.750000 -0.794669
v 0.500000 -1.000000 -0.000000
v 0.691619 -0.249815 -0.213559
v 0.750000 -1.000000 -0.000000
v 1.000000 -0.750000 -0.000000
v 0.500000 0.000000 -0.242319
v 1.000000 0.750000 0.000000
v 1.000000 1.000000 0.000000
vt 0.000000 0.000000
vt 0.000000 0.000000
vt 0.000000 0.000000
vt 0.401919 0.805076
vt 0.365157 0.953346
vt 0.477663 0.978528
vt 0.421554 0.419598
vt 0.429476 0.490624
vt 0.497505 0.416516
vt 0.816933 0.434090
vt 0.840587 0.531063
vt 0.980856 0.412095
vt 0.604009 0.834564
vt 0.592909 0.990397
vt 0.704881 0.843878
vt 0.614523 0.581650
vt 0.611831 0.719635
vt 0.721480 0.624295
vt 0.837347 0.633006
vt 0.829625 0.731407
vt 0.977315 0.750876
vt 0.231520 0.690969
vt 0.148614 0.889976
vt 0.254097 0.922976
vt 0.357492 0.548480
vt 0.166815 0.524302
vt 0.345637 0.594536
vt 0.420333 0.556037
vt 0.405399 0.623970
vt 0.508837 0.585299
vt 0.161075 0.334904
vt 0.155560 0.418422
vt 0.229426 0.352459
vt 0.219334 0.168769
vt 0.203768 0.245251
vt 0.306322 0.282392
vt 0.378060 0.263325
vt 0.423908 0.332144
vt 0.437967 0.199743
vt 0.566085 0.378297
vt 0.594435 0.501389
vt 0.751115 0.450332
vt 0.550036 0.303023
vt 0.537018 0.348210
vt 0.574394 0.363730
vt 0.784508 0.204718
vt 0.792692 0.318188
vt 0.964510 0.296843
vt 0.704881 0.843878
vt 0.707171 0.994686
vt 0.829072 0.993774
vt 0.703912 0.707817
vt 0.704881 0.843878
vt 0.829625 0.731407
vt 0.829625 0.731407
vt 0.811407 0.837255
vt 0.964449 0.870651
vt 0.311718 0.702734
vt 0.254097 0.922976
vt 0.401919 0.805076
vt 0.345637 0.594536
vt 0.311718 0.702734
vt 0.405399 0.623970
vt 0.405399 0.623970
vt 0.401919 0.805076
vt 0.513993 0.717689
vt 0.229426 0.352459
vt 0.356508 0.479035
vt 0.421554 0.419598
vt 0.306322 0.282392
vt 0.229426 0.352459
vt 0.423908 0.332144
vt 0.423908 0.332144
vt 0.421554 0.419598
vt 0.497505 0.416516
vt 0.751115 0.450332
vt 0.751663 0.528052
vt 0.816933 0.434090
vt 0.574394 0.363730
vt 0.751115 0.450332
vt 0.792692 0.318188
vt 0.792692 0.318188
vt 0.816933 0.434090
vt 0.964510 0.296843
vt 0.506804 0.806146
vt 0.477663 0.978528
vt 0.604009 0.834564
vt 0.513993 0.717689
vt 0.506804 0.806146
vt 0.611831 0.719635
vt 0.611831 0.719635
vt 0.604009 0.834564
vt 0.704881 0.843878
vt 0.508837 0.585299
vt 0.513993 0.717689
vt 0.614523 0.581650
vt 0.507210 0.497403
vt 0.508837 0.585299
vt 0.594435 0.501389
vt 0.594435 0.501389
vt 0.614523 0.581650
vt 0.751663 0.528052
vt 0.721480 0.624295
vt 0.703912 0.707817
vt 0.829625 0.731407
vt 0.751663 0.528052
vt 0.721480 0.624295
vt 0.837347 0.633006
vt 0.840587 0.531063
vt 0.837347 0.633006
vt 0.988703 0.528229
vt 0.008041 0.642959
vt 0.027070 0.750252
vt 0.231520 0.690969
vt 0.228370 0.610312
vt 0.231520 0.690969
vt 0.311718 0.702734
vt 0.000099 0.531163
vt 0.008041 0.642959
vt 0.166815 0.524302
vt 0.001445 0.421299
vt 0.000099 0.531163
vt 0.155560 0.418422
vt 0.155560 0.418422
vt 0.166815 0.524302
vt 0.356508 0.479035
vt 0.357492 0.548480
vt 0.345637 0.594536
vt 0.420333 0.556037
vt 0.356508 0.479035
vt 0.357492 0.548480
vt 0.420333 0.556037
vt 0.429476 0.490624
vt 0.420333 0.556037
vt 0.507210 0.497403
vt 0.013119 0.314055
vt 0.001445 0.421299
vt 0.155560 0.418422
vt 0.038247 0.209034
vt 0.013119 0.314055
vt 0.161075 0.334904
vt 0.203768 0.245251
vt 0.161075 0.334904
vt 0.229426 0.352459
vt 0.072374 0.111616
vt 0.038247 0.209034
vt 0.219334 0.168769
vt 0.000000 0.000000
vt 0.000000 0.000000
vt 0.000000 0.000000
vt 0.197440 0.013651
vt 0.219334 0.168769
vt 0.310611 0.005335
vt 0.314081 0.214050
vt 0.306322 0.282392
vt 0.378060 0.263325
vt 0.310611 0.005335
vt 0.314081 0.214050
vt 0.378060 0.263325
vt 0.393530 0.000099
vt 0.378060 0.263325
vt 0.437967 0.199743
vt 0.497505 0.416516
vt 0.507210 0.497403
vt 0.594435 0.501389
vt 0.498841 0.341134
vt 0.497505 0.416516
vt 0.566085 0.378297
vt 0.537018 0.348210
vt 0.566085 0.378297
vt 0.751115 0.450332
vt 0.437967 0.199743
vt 0.498841 0.341134
vt 0.550036 0.303023
vt 0.504661 0.002035
vt 0.437967 0.199743
vt 0.623838 0.020498
vt 0.623838 0.020498
vt 0.550036 0.303023
vt 0.699213 0.199804
vt 0.784508 0.204718
vt 0.699213 0.199804
vt 0.792692 0.318188
vt 0.733849 0.041258
vt 0.699213 0.199804
vt 0.784508 0.204718
vt 0.000000 0.000000
vt 0.000000 0.000000
vt 0.000000 0.000000
vt 0.000000 0.000000
vt 0.197440 0.013651
vt 0.000000 0.000000
vt 0.506804 0.806146
vt 0.507210 0.497403
vt 0.988703 0.528229
vt 0.707171 0.994686
vt 0.703912 0.707817
vt 0.985639 0.640664
vt 0.311718 0.702734
vt 0.513993 0.717689
vt 0.356508 0.479035
vt 0.314081 0.214050
vt 0.498841 0.341134
vt 0.574394 0.363730
vt 0.699213 0.199804
vt 0.955206 0.181475
vt 0.811407 0.837255
vt 0.811407 0.837255
vt 0.977315 0.750876
vt 0.365157 0.953346
vt 0.401919 0.805076
vt 0.506804 0.806146
vt 0.429476 0.490624
vt 0.421554 0.419598
vt 0.498841 0.341134
vt 0.840587 0.531063
vt 0.228370 0.610312
vt 0.980856 0.412095
vt 0.592909 0.990397
vt 0.604009 0.834564
vt 0.703912 0.707817
vt 0.611831 0.719635
vt 0.614523 0.581650
vt 0.721480 0.624295
vt 0.837347 0.633006
vt 0.840587 0.531063
vt 0.985639 0.640664
vt 0.000000 0.000000
vt 0.228370 0.610312
vt 0.345637 0.594536
vt 0.228370 0.610312
vt 0.166815 0.524302
vt 0.357492 0.548480
vt 0.405399 0.623970
vt 0.429476 0.490624
vt 0.508837 0.585299
vt 0.161075 0.334904
vt 0.203768 0.245251
vt 0.306322 0.282392
vt 0.203768 0.245251
vt 0.000000 0.000000
vt 0.000000 0.000000
vt 0.314081 0.214050
vt 0.423908 0.332144
vt 0.393530 0.000099
vt 0.504661 0.002035
vt 0.566085 0.378297
vt 0.537018 0.348210
vt 0.574394 0.363730
vt 0.537018 0.348210
vt 0.550036 0.303023
vt 0.733849 0.041258
vt 0.816933 0.434090
vt 0.844669 0.061547
vt 0.000000 0.000000
vt 0.751663 0.528052
vt 0.000000 0.000000
vt 0.811407 0.837255
vt 0.000000 0.000000
vt 0.829072 0.993774
vt 0.000000 0.000000
vt 0.000000 0.000000
vt 0.000000 0.000000
vn -0.7423 0.0000 -0.6700
vn 0.0000 0.6960 -0.7181
vn 0.6207 0.6164 -0.4845
vn 0.5550 -0.2220 -0.8017
vn 0.0530 0.6950 -0.7170
vn 0.3617 0.3617 -0.8592
vn 0.6670 0.0000 -0.7450
vn 0.0000 0.8987 -0.4385
vn -0.8633 0.4660 -0.1938
vn 0.5972 0.2844 -0.7500
vn -0.6011 -0.0438 -0.7980
vn -0.7247 -0.0403 -0.6879
vn -0.2483 -0.9594 -0.1339
vn 0.8149 0.5537 -0.1710
vn -0.8006 0.0000 -0.5992
vn 0.6751 -0.4541 -0.5814
vn 0.0000 0.6670 -0.7450
vn 0.6190 0.6190 -0.4834
vn 0.6973 -0.0577 -0.7144
vn 0.4281 0.8122 -0.3963
vn 0.2987 0.7641 -0.5719
vn 0.5806 0.7200 -0.3801
vn -0.8280 -0.4966 -0.2605
vn -0.5792 0.5422 -0.6086
vn 0.6089 -0.6351 -0.4753
vn 0.1484 0.0000 -0.9889
vn 0.6732 0.7117 -0.2007
vn 0.7090 0.3527 -0.6106
vn 0.2147 0.7819 -0.5852
vn -0.0828 0.0000 -0.9966
vn 0.0673 0.4094 -0.9099
vn 0.4689 0.6563 -0.5911
vn 0.3207 0.3646 -0.8742
vn 0.7751 0.3764 -0.5075
vn 0.7342 -0.6664 -0.1294
vn 0.4311 -0.3702 -0.8229
vn 0.6950 0.0530 -0.7170
vn -0.8987 -0.0000 -0.4385
vn 0.0000 0.0000 -1.0000
vn -0.5516 0.0000 -0.8341
vn -0.8882 -0.3707 -0.2714
vn 0.6993 0.6600 -0.2745
vn 0.6813 -0.6813 -0.2675
vn 0.3545 0.0000 -0.9351
vn -0.5265 0.0000 -0.8502
vn -0.5639 0.4324 -0.7036
vn 0.0000 0.0000 1.0000
vn 0.0000 0.0000 0.9770
vn 0.0000 -0.7812 -0.6243
vn 0.0627 0.6880 -0.7230
vn 0.8546 -0.4954 -0.1558
vn 0.2213 -0.7208 -0.6569
vn 0.3253 0.3284 -0.8867
vn -0.8544 0.3914 -0.3417
vn 0.8666 -0.4648 -0.1819
vn -0.5748 -0.7971 -0.1851
vn 0.0000 -0.6945 -0.7195
vn 0.5179 -0.8160 -0.2567
vn 0.4625 -0.4625 -0.7564
vn 0.4081 -0.6918 -0.5958
vn 0.0000 -0.5793 -0.8151
vn 0.0663 0.2237 0.9724
vn 0.2260 0.1374 0.9644
vn 0.0631 0.2132 0.9750
vn -0.2147 0.7819 -0.5852
vn 0.3350 0.3273 -0.8836
vn 0.6960 -0.0000 -0.7181
vn -0.7070 -0.7070 -0.0178
vn 0.7148 0.5196 -0.4680
vn -0.8289 -0.4954 -0.2598
vn -0.8472 0.3663 -0.3849
vn -0.1904 -0.9688 -0.1586
vn 0.6919 -0.6919 -0.2063
vn 0.4995 -0.8302 -0.2476
vn 0.5203 0.0000 -0.8540
vn -0.0592 0.6981 -0.7135
vn -0.1159 -0.1159 -0.9865
vn 0.4503 0.7896 -0.4168
vn -0.3444 0.0000 -0.9388
vn 0.0000 0.7862 -0.6180
vn -0.8854 -0.3722 -0.2785
vn -0.6197 0.5912 -0.5162
vn 0.0000 -0.1144 -0.9934
vn -0.7361 -0.3931 -0.5510
vn 0.5693 0.0000 -0.8221
vn 0.3172 0.3891 -0.8648
vn -0.4716 0.7304 -0.4941
vn -0.0764 0.3863 -0.9192
vn 0.4863 0.5215 -0.7011
vn 0.5150 -0.3517 -0.7817
vn 0.4640 0.0000 -0.8858
vn 0.0000 0.0738 -0.9973
vn 0.2716 0.1651 0.9481
vn 0.0390 0.2429 0.9693
vn 0.0000 0.0000 0.9364
vn -0.6250 0.6250 -0.4678
vn -0.8577 -0.2986 -0.4185
vn -0.7209 -0.4351 -0.5395
vn -0.8520 -0.4873 -0.1913
vn 0.4388 0.3186 -0.8402
vn 0.5922 0.3102 -0.7437
vn -0.5272 -0.0497 -0.8483
vn -0.6781 0.4075 -0.6117
vn -0.6483 0.5065 -0.5685
vn -0.7570 -0.0358 -0.6524
vn -0.5193 -0.8152 -0.2565
vn -0.0833 -0.9927 -0.0875
vn 0.0000 -0.7535 -0.6575
vn -0.5937 0.7688 -0.2375
vn 0.4008 -0.8532 -0.3339
vn -0.3410 0.9048 -0.2552
vn 0.7683 0.0000 -0.6401
vn -0.6156 -0.7517 -0.2365
vn 0.0000 -0.7577 -0.6526
vn 0.1403 0.3201 -0.9369
vn 0.8366 -0.0000 -0.5478
vn 0.0000 0.0000 -0.9239
vn -0.1464 -0.3535 -0.9239
vn 0.0000 -0.3827 -0.9239
vn -0.0507 -0.6173 0.7851
vn 0.0048 0.3108 -0.9505
vn 0.0000 0.0000 0.7903
vn 0.0000 -0.8746 0.4848
vn -0.4580 -0.7694 0.4453
vn 0.6976 0.0000 -0.7165
vn 0.0000 0.6984 -0.7157
usemtl Default_OBJ
s 1
f 1/1/1 2/2/1 3/3/1
f 4/4/2 5/5/2 6/6/2
f 7/7/3 8/8/3 9/9/3
f 10/10/4 11/11/4 12/12/4
f 13/13/5 14/14/5 15/15/5
f 16/16/6 17/17/6 18/18/6
f 19/19/7 20/20/7 21/21/7
f 22/22/8 23/23/8 24/24/8
f 25/25/9 26/26/9 27/27/9
f 28/28/10 29/29/10 30/30/10
f 31/31/11 32/32/11 33/33/11
f 34/34/12 35/35/12 36/36/12
f 37/37/13 38/38/13 39/39/13
f 40/40/14 41/41/14 42/42/14
f 43/43/15 44/44/15 45/45/15
f 46/46/16 47/47/16 48/48/16
f 49/49/17 50/50/17 51/51/17
f 52/52/18 53/53/18 54/54/18
f 55/55/19 56/56/19 57/57/19
f 58/58/20 59/59/20 60/60/20
f 61/61/21 62/62/21 63/63/21
f 64/64/22 65/65/22 66/66/22
f 67/67/23 68/68/23 69/69/23
f 70/70/24 71/71/24 72/72/24
f 73/73/25 74/74/25 75/75/25
f 76/76/26 77/77/26 78/78/26
f 79/79/27 80/80/27 81/81/27
f 82/82/28 83/83/28 84/84/28
f 85/85/29 86/86/29 87/87/29
f 88/88/30 89/89/30 90/90/30
f 91/91/31 92/92/31 93/93/31
f 94/94/32 95/95/32 96/96/32
f 97/97/33 98/98/33 99/99/33
f 100/100/34 101/101/34 102/102/34
f 103/103/35 104/104/35 105/105/35
f 106/106/36 107/107/36 108/108/36
f 109/109/37 110/110/37 111/111/37
f 112/112/38 113/113/38 114/114/38
f 115/115/39 116/116/39 117/117/39
f 118/118/15 119/119/15 120/120/15
f 121/121/40 122/122/40 123/123/40
f 124/124/41 125/125/41 126/126/41
f 127/127/42 128/128/42 129/129/42
f 130/130/43 131/131/43 132/132/43
f 133/133/44 134/134/44 135/135/44
f 136/136/40 137/137/40 138/138/40
f 139/139/45 140/140/45 141/141/45
f 142/142/46 143/143/46 144/144/46
f 145/145/1 146/146/1 147/147/1
f 114/148/47 148/149/47 149/150/48
f 150/151/49 151/152/49 152/153/49
f 153/154/50 154/155/50 155/156/50
f 156/157/51 157/158/51 158/159/51
f 159/160/52 160/161/52 161/162/52
f 162/163/53 163/164/53 164/165/53
f 165/166/54 166/167/54 167/168/54
f 168/169/55 169/170/55 170/171/55
f 171/172/56 172/173/56 173/174/56
f 174/175/57 175/176/57 176/177/57
f 177/178/58 178/179/58 179/180/58
f 180/181/59 181/182/59 182/183/59
f 183/184/60 184/185/60 185/186/60
f 186/187/61 187/188/61 188/189/61
f 189/190/62 151/191/63 150/192/64
f 190/193/65 4/4/65 6/6/65
f 8/8/66 191/194/66 9/9/66
f 11/11/67 192/195/67 12/12/67
f 14/14/17 193/196/17 15/15/17
f 17/17/68 194/197/68 18/18/68
f 195/198/7 19/19/7 21/21/7
f 196/199/8 22/22/8 24/24/8
f 29/29/69 197/200/69 30/30/69
f 32/32/70 198/201/70 33/33/70
f 199/202/71 34/34/71 36/36/71
f 38/38/72 200/203/72 39/39/72
f 181/182/73 201/204/73 182/183/73
f 202/205/74 43/43/74 45/45/74
f 203/206/75 46/46/75 48/48/75
f 204/207/76 49/49/76 51/51/76
f 53/53/77 205/208/77 54/54/77
f 206/209/7 55/55/7 57/57/7
f 59/59/2 207/210/2 60/60/2
f 62/62/78 208/211/78 63/63/78
f 65/65/79 209/212/79 66/66/79
f 68/68/80 210/213/80 69/69/80
f 71/71/81 211/214/81 72/72/81
f 212/215/82 73/73/82 75/75/82
f 77/77/83 213/216/83 78/78/83
f 26/26/84 214/217/84 27/27/84
f 83/83/85 215/218/85 84/84/85
f 86/86/2 216/219/2 87/87/2
f 89/89/86 217/220/86 90/90/86
f 218/221/87 91/91/87 93/93/87
f 95/95/88 219/222/88 96/96/88
f 98/98/89 220/223/89 99/99/89
f 101/101/90 221/224/90 102/102/90
f 222/225/91 103/103/91 105/105/91
f 223/226/92 106/106/92 108/108/92
f 110/110/7 224/227/7 111/111/7
f 151/228/93 189/190/94 1/1/95
f 225/229/38 112/112/38 114/114/38
f 226/230/96 115/115/96 117/117/96
f 119/119/97 227/231/97 120/120/97
f 122/122/98 228/232/98 123/123/98
f 125/125/99 229/233/99 126/126/99
f 128/128/100 230/234/100 129/129/100
f 231/235/39 130/130/39 132/132/39
f 134/134/101 232/236/101 135/135/101
f 233/237/102 136/136/102 138/138/102
f 234/238/103 139/139/103 141/141/103
f 235/239/104 142/142/104 144/144/104
f 146/146/105 236/240/105 147/147/105
f 149/150/8 237/241/8 238/242/8
f 151/152/106 239/243/106 152/153/106
f 154/155/107 240/244/107 155/156/107
f 241/245/108 156/157/108 158/159/108
f 242/246/57 159/160/57 161/162/57
f 243/247/109 162/163/109 164/165/109
f 244/248/110 165/166/110 167/168/110
f 245/249/111 168/169/111 170/171/111
f 172/173/112 246/250/112 173/174/112
f 175/176/113 247/251/113 176/177/113
f 248/252/114 177/178/114 179/180/114
f 80/80/115 249/253/115 81/81/115
f 250/254/61 183/184/61 185/186/61
f 187/188/75 251/255/75 188/189/75
f 41/41/116 252/256/116 42/42/116
f 253/257/117 57/258/118 254/259/119
f 204/260/120 51/261/121 56/262/122
f 148/149/47 113/263/123 149/150/48
f 113/263/38 237/241/38 149/150/38
f 189/190/62 150/192/64 2/2/124
f 1/1/49 189/190/49 2/2/49
f 57/258/125 56/262/125 254/259/125
f 51/261/126 254/259/126 56/262/126
